<?xml version="1.0" encoding="utf-8"?>
<!-- Generator: Adobe Illustrator 17.0.0, SVG Export Plug-In . SVG Version: 6.00 Build 0)  -->
<!DOCTYPE svg PUBLIC "-//W3C//DTD SVG 1.1//EN" "http://www.w3.org/Graphics/SVG/1.1/DTD/svg11.dtd">
<svg version="1.1" id="Capa_1" xmlns="http://www.w3.org/2000/svg" xmlns:xlink="http://www.w3.org/1999/xlink" x="0px" y="0px"
	 width="1400px" height="1400px" viewBox="0 0 1400 1400" enable-background="new 0 0 1400 1400" xml:space="preserve">
<g>
	<g>
		<path fill="#2B2B2B" d="M863.667,30l179.666,0.288v210.269L922.807,240.6c-23.97,0-43.553,2.44-59.871,7.459
			c-18.187,5.594-32.971,14.731-43.941,27.156c-22.669,25.676-25.725,61.305-25.725,92.771v134.392v30h30h211.573l-0.086,226.691
			H823.271h-30v30v578.092H558.614V789.069v-30h-30H347.957V532.378h180.658h30v-30V343.843c0-94.506,28.597-173.802,82.7-229.315
			C695.201,59.236,772.085,30.007,863.667,30 M863.707,0c-203.55,0-335.093,134.959-335.093,343.843v158.535H346.445
			c-15.742,0-28.489,12.762-28.489,28.503V760.58c0,15.742,12.762,28.489,28.489,28.489h182.169v579.603
			c0,15.741,12.747,28.489,28.489,28.489h237.679c15.741,0,28.489-12.762,28.489-28.489V789.069h212.998
			c15.741,0,28.489-12.747,28.489-28.489l0.087-229.699c0-7.558-3.009-14.797-8.343-20.146s-12.602-8.358-20.16-8.358H823.271
			V367.986c0-64.594,15.393-97.385,99.537-97.385l122.052-0.044c15.727,0,28.474-12.762,28.474-28.489V28.779
			c0-15.712-12.733-28.459-28.445-28.489L863.707,0L863.707,0z"/>
	</g>
</g>
</svg>
