<?xml version="1.0" encoding="utf-8"?>
<!-- Generator: Adobe Illustrator 17.0.0, SVG Export Plug-In . SVG Version: 6.00 Build 0)  -->
<!DOCTYPE svg PUBLIC "-//W3C//DTD SVG 1.1//EN" "http://www.w3.org/Graphics/SVG/1.1/DTD/svg11.dtd">
<svg version="1.1" id="Слой_1" xmlns="http://www.w3.org/2000/svg" xmlns:xlink="http://www.w3.org/1999/xlink" x="0px" y="0px"
	 width="1400px" height="1400px" viewBox="0 0 1400 1400" enable-background="new 0 0 1400 1400" xml:space="preserve">
<g id="Capa_1" display="none">
	<g display="inline">
		<g>
			<path fill="#2B2B2B" d="M863.667,30l179.666,0.288v210.269L922.807,240.6c-23.97,0-43.553,2.44-59.871,7.459
				c-18.187,5.594-32.971,14.731-43.941,27.156c-22.669,25.676-25.725,61.305-25.725,92.771v134.392v30h30h211.573l-0.086,226.691
				H823.271h-30v30v578.092H558.614V789.069v-30h-30H347.957V532.378h180.658h30v-30V343.843c0-94.506,28.597-173.802,82.7-229.315
				C695.201,59.236,772.085,30.007,863.667,30 M863.707,0c-203.55,0-335.093,134.959-335.093,343.843v158.535H346.445
				c-15.742,0-28.489,12.762-28.489,28.503V760.58c0,15.742,12.762,28.489,28.489,28.489h182.169v579.603
				c0,15.741,12.747,28.489,28.489,28.489h237.679c15.741,0,28.489-12.762,28.489-28.489V789.069h212.998
				c15.741,0,28.489-12.747,28.489-28.489l0.087-229.699c0-7.558-3.009-14.797-8.343-20.146s-12.602-8.358-20.16-8.358H823.271
				V367.986c0-64.594,15.393-97.385,99.537-97.385l122.052-0.044c15.727,0,28.474-12.762,28.474-28.489V28.779
				c0-15.712-12.733-28.459-28.445-28.489L863.707,0L863.707,0z"/>
		</g>
	</g>
	<path display="inline" d="M1385.082,415.135c-12.61-114.277-94.299-195.48-203.333-202.095
		c-324.626-19.819-648.663-19.819-963.582,0c-107.771,6.778-191.338,89.944-203.225,202.204
		c-19.923,187.414-19.923,378.321,0,567.43c11.911,113.201,95.592,196.367,203.467,202.283
		c182.598,9.84,355.925,14.869,515.132,14.869s310.108-5.029,448.505-14.919c109.972-7.882,191.581-89.19,203.061-202.312
		C1404.98,786.95,1404.951,596.068,1385.082,415.135z M563.038,877.563V508.517l354.394,185.774L563.038,877.563z"/>
	<g display="inline">
		<path fill="#2B2B2B" d="M696.32,226.676c159.947,0,322.655,4.982,483.615,14.809c46.103,2.797,87.077,20.781,118.493,52.007
			c31.755,31.564,51.41,74.246,56.836,123.418c19.648,178.92,19.648,367.72-0.001,561.156
			c-4.925,48.53-24.263,90.854-55.923,122.398c-31.456,31.34-72.757,49.674-119.429,53.02
			c-137.822,9.849-288.001,14.843-446.367,14.843c-158.194,0-330.966-4.988-513.489-14.824
			c-22.817-1.251-44.687-6.502-65.001-15.605c-19.777-8.863-37.68-21.186-53.212-36.625c-15.625-15.532-28.446-33.815-38.107-54.342
			c-10.004-21.255-16.382-44.435-18.956-68.899C25.077,791.02,25.076,602.234,44.777,416.904
			c2.565-24.223,8.926-47.218,18.906-68.346c9.649-20.428,22.461-38.665,38.077-54.204c15.539-15.462,33.453-27.85,53.245-36.82
			c20.331-9.215,42.215-14.615,65.048-16.051C376.153,231.657,536.392,226.676,696.32,226.676 M696.32,196.676
			c-160.952,0-320.691,4.955-478.151,14.864c-107.771,6.778-191.338,89.944-203.225,202.204
			c-19.923,187.414-19.923,378.321,0,567.43c11.911,113.201,95.592,196.367,203.467,202.283
			c182.598,9.84,355.925,14.869,515.132,14.869s310.108-5.029,448.505-14.919c109.972-7.882,191.581-89.19,203.061-202.312
			c19.873-195.645,19.844-386.527-0.025-567.46c-12.61-114.277-94.299-195.48-203.333-202.095
			C1019.438,201.631,857.272,196.676,696.32,196.676L696.32,196.676z"/>
	</g>
	<g display="inline">
		<path fill="#2B2B2B" d="M593.04,556.615l259.434,135.996L593.04,826.775V556.615 M563.04,507.017v369.046l354.394-183.272
			L563.04,507.017L563.04,507.017z"/>
	</g>
	<g display="inline">
		<g>
			<path fill="#2B2B2B" d="M301.257,1372.55c-160.545,0-291.158-130.612-291.158-291.157V315.604
				c0-160.545,130.613-291.158,291.158-291.158h799.085c160.545,0,291.157,130.613,291.157,291.158v765.789
				c0,160.545-130.612,291.157-291.157,291.157H301.257z M59.69,1081.393c0,133.2,108.367,241.566,241.567,241.566h799.085
				c133.2,0,241.566-108.366,241.566-241.566V573.465H978.71l12.723,14.177c64.751,72.15,100.41,164.73,100.41,260.684
				c0,215.621-175.421,391.042-391.043,391.042s-391.042-175.421-391.042-391.042c0-95.955,35.66-188.535,100.41-260.684
				l12.723-14.177H59.69V1081.393z M700.8,506.874c-188.277,0-341.452,153.175-341.452,341.452
				c0,188.278,153.175,341.454,341.452,341.454s341.452-153.176,341.452-341.454C1042.252,660.049,889.077,506.874,700.8,506.874z
				 M700.8,457.283c76.893,0,151.474,22.536,215.679,65.172l2.137,1.419h423.294v-208.27c0-133.2-108.366-241.567-241.566-241.567
				H301.257c-133.2,0-241.567,108.367-241.567,241.567v208.27h423.294l2.137-1.419C549.326,479.819,623.907,457.283,700.8,457.283z
				 M700.8,1072.893c-123.826,0-224.566-100.74-224.566-224.566S576.974,623.759,700.8,623.759S925.366,724.5,925.366,848.326
				S824.626,1072.893,700.8,1072.893z M700.8,673.352c-96.482,0-174.976,78.493-174.976,174.974s78.494,174.976,174.976,174.976
				c96.481,0,174.976-78.494,174.976-174.976S797.281,673.352,700.8,673.352z M1046.34,465.091
				c-37.245,0-67.546-30.301-67.546-67.546V269.258c0-37.245,30.301-67.546,67.546-67.546h128.319
				c37.245,0,67.546,30.301,67.546,67.546v128.287c0,37.245-30.301,67.546-67.546,67.546L1046.34,465.091L1046.34,465.091z
				 M1046.34,251.303c-9.902,0-17.958,8.055-17.958,17.955v128.288c0,9.9,8.056,17.955,17.958,17.955h128.319
				c9.9,0,17.955-8.055,17.955-17.955V269.258c0-9.9-8.055-17.955-17.955-17.955H1046.34z"/>
			<path fill="#FFFFFF" d="M1100.343,32.947c155.858,0,282.658,126.8,282.658,282.658v765.788
				c0,155.858-126.8,282.658-282.658,282.658H301.257c-155.858,0-282.657-126.8-282.657-282.658V315.604
				c0-155.858,126.8-282.658,282.657-282.658L1100.343,32.947 M51.191,532.374h17H480.42h5.13l4.274-2.838
				c62.807-41.707,135.762-63.753,210.976-63.753s148.169,22.045,210.976,63.753l4.274,2.838h5.13h412.229h17v-17v-199.77
				c0-137.887-112.18-250.067-250.067-250.067H301.257c-137.887,0-250.067,112.18-250.067,250.067v199.77v17 M700.8,1198.28
				c192.964,0,349.952-156.989,349.952-349.954c0-192.964-156.988-349.952-349.952-349.952S350.848,655.362,350.848,848.326
				C350.848,1041.291,507.836,1198.28,700.8,1198.28 M700.8,1230.868c-210.935,0-382.543-171.608-382.543-382.543
				c0-47.823,8.844-94.521,26.286-138.798c16.79-42.621,40.997-81.719,71.949-116.208l25.447-28.355H403.84H68.191h-17v17v499.428
				c0,137.887,112.18,250.067,250.067,250.067h799.085c137.887,0,250.067-112.18,250.067-250.067V581.965v-17h-17H997.76h-38.1
				l25.447,28.355c30.952,34.489,55.16,73.587,71.949,116.208c17.442,44.277,26.286,90.975,26.286,138.798
				C1083.343,1059.261,911.735,1230.868,700.8,1230.868 M1174.659,210.212c32.558,0,59.046,26.488,59.046,59.046v128.287
				c0,32.558-26.488,59.046-59.046,59.046H1046.34c-32.558,0-59.046-26.488-59.046-59.046V269.258
				c0-32.558,26.488-59.046,59.046-59.046L1174.659,210.212 M1046.34,424h128.319c14.587,0,26.455-11.868,26.455-26.455V269.258
				c0-14.587-11.868-26.455-26.455-26.455H1046.34c-14.589,0-26.458,11.868-26.458,26.455v128.287
				C1019.882,412.133,1031.751,424,1046.34,424 M700.8,632.259c119.14,0,216.067,96.927,216.067,216.067
				S819.94,1064.393,700.8,1064.393s-216.067-96.927-216.067-216.067S581.66,632.259,700.8,632.259 M700.8,1031.802
				c101.169,0,183.476-82.307,183.476-183.476c0-101.168-82.307-183.474-183.476-183.474s-183.476,82.306-183.476,183.474
				C517.324,949.495,599.631,1031.802,700.8,1031.802 M1100.343,15.947H301.257C136.045,15.947,1.6,150.392,1.6,315.604v765.788
				c0,165.215,134.445,299.658,299.657,299.658h799.085c165.21,0,299.658-134.443,299.658-299.658V315.604
				C1400,150.392,1265.552,15.947,1100.343,15.947L1100.343,15.947z M68.191,515.374v-199.77
				c0-128.52,104.547-233.067,233.067-233.067h799.085c128.518,0,233.067,104.547,233.067,233.067v199.77H921.181
				c-63.227-41.986-138.942-66.591-220.381-66.591c-81.406,0-157.153,24.605-220.38,66.591H68.191L68.191,515.374z M700.8,1181.28
				c-183.59,0-332.952-149.362-332.952-332.954c0-183.588,149.362-332.952,332.952-332.952s332.952,149.364,332.952,332.952
				C1033.752,1031.918,884.39,1181.28,700.8,1181.28L700.8,1181.28z M700.8,1247.868c220.314,0,399.543-179.228,399.543-399.543
				c0-102.383-39.057-195.575-102.584-266.361h335.65v499.428c0,128.52-104.549,233.067-233.067,233.067H301.257
				c-128.52,0-233.067-104.546-233.067-233.067V581.965h335.65c-63.527,70.786-102.584,163.978-102.584,266.361
				C301.257,1068.642,480.486,1247.868,700.8,1247.868L700.8,1247.868z M1174.659,193.212H1046.34
				c-41.92,0-76.046,34.128-76.046,76.046v128.287c0,41.918,34.128,76.046,76.046,76.046h128.319
				c41.918,0,76.046-34.128,76.046-76.046V269.258C1250.705,227.338,1216.577,193.212,1174.659,193.212L1174.659,193.212z
				 M1046.34,407c-5.228,0-9.458-4.23-9.458-9.455V269.258c0-5.228,4.261-9.455,9.458-9.455h128.319
				c5.191,0,9.455,4.229,9.455,9.455v128.287c0,5.228-4.23,9.455-9.455,9.455L1046.34,407L1046.34,407z M700.8,615.259
				c-128.52,0-233.067,104.549-233.067,233.067c0,128.52,104.547,233.067,233.067,233.067s233.067-104.546,233.067-233.067
				C933.867,719.81,829.32,615.259,700.8,615.259L700.8,615.259z M700.8,1014.802c-91.794,0-166.476-74.682-166.476-166.476
				c0-91.792,74.682-166.474,166.476-166.474c91.796,0,166.476,74.684,166.476,166.474
				C867.276,940.122,792.594,1014.802,700.8,1014.802L700.8,1014.802z"/>
		</g>
	</g>
</g>
<g>
	<path fill="#2B2B2B" d="M1110.469,54.62c30.322,0,59.726,6.023,87.394,17.901c26.769,11.492,50.824,27.958,71.495,48.94
		c20.703,21.013,36.957,45.483,48.312,72.731c11.762,28.224,17.725,58.228,17.725,89.177v832.5c0,30.949-5.964,60.953-17.725,89.178
		c-11.355,27.248-27.609,51.718-48.311,72.731c-20.672,20.982-44.727,37.448-71.496,48.94
		c-27.668,11.878-57.072,17.901-87.395,17.901H290.271c-30.322,0-59.726-6.023-87.394-17.901
		c-26.769-11.492-50.824-27.958-71.496-48.94c-20.703-21.013-36.957-45.484-48.312-72.732
		c-11.762-28.224-17.725-58.228-17.725-89.177v-832.5c0-30.949,5.964-60.953,17.725-89.177
		c11.355-27.248,27.609-51.719,48.311-72.731c20.672-20.982,44.727-37.448,71.496-48.94c27.668-11.878,57.072-17.901,87.395-17.901
		L1110.469,54.62 M1110.469,24.62H290.271c-140.793,0-254.927,115.846-254.927,258.75v832.5
		c0,142.904,114.135,258.75,254.927,258.75h820.198c140.793,0,254.927-115.846,254.927-258.75l0,0v-832.5
		C1365.396,140.467,1251.26,24.62,1110.469,24.62L1110.469,24.62z"/>
</g>
<g>
	<path fill="#2B2B2B" d="M698.75,404.391c43.351,0,85.388,8.484,124.946,25.215c38.223,16.167,72.557,39.318,102.049,68.809
		c29.492,29.491,52.642,63.826,68.809,102.049c16.732,39.558,25.215,81.595,25.215,124.946c0,43.35-8.484,85.388-25.215,124.946
		c-16.167,38.223-39.318,72.557-68.809,102.049s-63.826,52.642-102.049,68.809c-39.558,16.732-81.595,25.215-124.946,25.215
		s-85.388-8.484-124.946-25.215c-38.223-16.167-72.557-39.318-102.049-68.809c-29.491-29.492-52.642-63.826-68.809-102.049
		c-16.732-39.558-25.215-81.596-25.215-124.946c0-43.351,8.483-85.388,25.215-124.946c16.167-38.223,39.318-72.557,68.809-102.049
		c29.492-29.492,63.826-52.642,102.049-68.809C613.361,412.874,655.399,404.391,698.75,404.391 M698.75,374.391
		c-193.862,0-351.019,157.157-351.019,351.019s157.157,351.019,351.019,351.019s351.019-157.157,351.019-351.019
		S892.612,374.391,698.75,374.391L698.75,374.391z"/>
</g>
<g>
	<path fill="#2B2B2B" d="M697.75,571.391c41.14,0,79.818,16.021,108.908,45.111s45.111,67.768,45.111,108.908
		s-16.021,79.818-45.111,108.908s-67.768,45.111-108.908,45.111s-79.818-16.021-108.908-45.111s-45.111-67.768-45.111-108.908
		s16.021-79.818,45.111-108.908S656.61,571.391,697.75,571.391 M697.75,541.391c-101.631,0-184.019,82.388-184.019,184.019
		s82.388,184.019,184.019,184.019s184.019-82.388,184.019-184.019S799.381,541.391,697.75,541.391L697.75,541.391z"/>
</g>
<g>
	<path fill="#2B2B2B" d="M1193.282,161.12c0.157,0,0.284,0.128,0.284,0.284v162.92c0,0.157-0.127,0.284-0.284,0.284h-162.919
		c-0.157,0-0.284-0.128-0.284-0.284v-162.92c0-0.157,0.128-0.284,0.284-0.284L1193.282,161.12 M1193.282,131.12h-162.919
		c-16.725,0-30.284,13.559-30.284,30.284v162.92c0,16.725,13.559,30.284,30.284,30.284h162.919
		c16.725,0,30.284-13.559,30.284-30.284v-162.92C1223.566,144.679,1210.007,131.12,1193.282,131.12L1193.282,131.12z"/>
</g>
<g id="Слой_3">
	
		<line fill="none" stroke="#2B2B2B" stroke-width="30" stroke-miterlimit="10" x1="49.289" y1="425.513" x2="548.881" y2="425.513"/>
	
		<line fill="none" stroke="#2B2B2B" stroke-width="30" stroke-miterlimit="10" x1="847.375" y1="426.008" x2="1362.275" y2="426.008"/>
</g>
</svg>
