<?xml version="1.0" encoding="utf-8"?>
<!-- Generator: Adobe Illustrator 17.0.0, SVG Export Plug-In . SVG Version: 6.00 Build 0)  -->
<!DOCTYPE svg PUBLIC "-//W3C//DTD SVG 1.1//EN" "http://www.w3.org/Graphics/SVG/1.1/DTD/svg11.dtd">
<svg version="1.1" id="Capa_1" xmlns="http://www.w3.org/2000/svg" xmlns:xlink="http://www.w3.org/1999/xlink" x="0px" y="0px"
	 width="60px" height="60px" viewBox="0 0 1400 1400" enable-background="new 0 0 1400 1400" xml:space="preserve">
	 <defs>
    <mask id="yt" maskUnits="objectBoundingBox">
			<g>
				<path fill="#2B2B2B" d="M696.32,226.676c159.947,0,322.655,4.982,483.615,14.809c46.103,2.797,87.077,20.781,118.493,52.007
					c31.755,31.564,51.41,74.246,56.836,123.418c19.648,178.92,19.648,367.72-0.001,561.156c-4.925,48.53-24.263,90.854-55.923,122.398
					c-31.456,31.34-72.757,49.674-119.429,53.02c-137.822,9.849-288.001,14.843-446.367,14.843
					c-158.194,0-330.966-4.988-513.489-14.824c-22.817-1.251-44.687-6.502-65.001-15.605c-19.777-8.863-37.68-21.186-53.212-36.625
					c-15.625-15.532-28.446-33.815-38.107-54.342c-10.004-21.255-16.382-44.435-18.956-68.899
					C25.077,791.02,25.076,602.234,44.777,416.904c2.565-24.223,8.926-47.218,18.906-68.346c9.649-20.428,22.461-38.665,38.077-54.204
					c15.539-15.462,33.453-27.85,53.245-36.82c20.331-9.215,42.215-14.615,65.048-16.051
					C376.153,231.657,536.392,226.676,696.32,226.676 M696.32,196.676c-160.952,0-320.691,4.955-478.151,14.864
					c-107.771,6.778-191.338,89.944-203.225,202.204c-19.923,187.414-19.923,378.321,0,567.43
					c11.911,113.201,95.592,196.367,203.467,202.283c182.598,9.84,355.925,14.869,515.132,14.869s310.108-5.029,448.505-14.919
					c109.972-7.882,191.581-89.19,203.061-202.312c19.873-195.645,19.844-386.527-0.025-567.46
					c-12.61-114.277-94.299-195.48-203.333-202.095C1019.438,201.631,857.272,196.676,696.32,196.676L696.32,196.676z"/>
			</g>
			<g>
				<path fill="#2B2B2B" d="M593.04,556.615l259.434,135.996L593.04,826.775V556.615 M563.04,507.017v369.046l354.394-183.272
					L563.04,507.017L563.04,507.017z"/>
			</g>
    </mask>
</defs>
<g>
	<path fill="#2B2B2B" d="M696.32,226.676c159.947,0,322.655,4.982,483.615,14.809c46.103,2.797,87.077,20.781,118.493,52.007
		c31.755,31.564,51.41,74.246,56.836,123.418c19.648,178.92,19.648,367.72-0.001,561.156c-4.925,48.53-24.263,90.854-55.923,122.398
		c-31.456,31.34-72.757,49.674-119.429,53.02c-137.822,9.849-288.001,14.843-446.367,14.843
		c-158.194,0-330.966-4.988-513.489-14.824c-22.817-1.251-44.687-6.502-65.001-15.605c-19.777-8.863-37.68-21.186-53.212-36.625
		c-15.625-15.532-28.446-33.815-38.107-54.342c-10.004-21.255-16.382-44.435-18.956-68.899
		C25.077,791.02,25.076,602.234,44.777,416.904c2.565-24.223,8.926-47.218,18.906-68.346c9.649-20.428,22.461-38.665,38.077-54.204
		c15.539-15.462,33.453-27.85,53.245-36.82c20.331-9.215,42.215-14.615,65.048-16.051
		C376.153,231.657,536.392,226.676,696.32,226.676 M696.32,196.676c-160.952,0-320.691,4.955-478.151,14.864
		c-107.771,6.778-191.338,89.944-203.225,202.204c-19.923,187.414-19.923,378.321,0,567.43
		c11.911,113.201,95.592,196.367,203.467,202.283c182.598,9.84,355.925,14.869,515.132,14.869s310.108-5.029,448.505-14.919
		c109.972-7.882,191.581-89.19,203.061-202.312c19.873-195.645,19.844-386.527-0.025-567.46
		c-12.61-114.277-94.299-195.48-203.333-202.095C1019.438,201.631,857.272,196.676,696.32,196.676L696.32,196.676z"/>
</g>
<g>
	<path fill="#2B2B2B" d="M593.04,556.615l259.434,135.996L593.04,826.775V556.615 M563.04,507.017v369.046l354.394-183.272
		L563.04,507.017L563.04,507.017z"/>
</g>
</svg>
